<svg width="1280" height="720" xmlns="http://www.w3.org/2000/svg" xmlns:xlink="http://www.w3.org/1999/xlink" overflow="hidden"><defs><filter id="fx0" x="-10%" y="-10%" width="120%" height="120%" filterUnits="userSpaceOnUse" primitiveUnits="userSpaceOnUse"><feComponentTransfer color-interpolation-filters="sRGB"><feFuncR type="discrete" tableValues="0 0"/><feFuncG type="discrete" tableValues="0 0"/><feFuncB type="discrete" tableValues="0 0"/><feFuncA type="linear" slope="0.4" intercept="0"/></feComponentTransfer><feGaussianBlur stdDeviation="1.35078 1.35078"/></filter><clipPath id="clip1"><rect x="0" y="0" width="1280" height="720"/></clipPath><clipPath id="clip2"><rect x="61" y="41" width="1171" height="109"/></clipPath><clipPath id="clip3"><rect x="0" y="0" width="1290" height="236"/></clipPath></defs><g clip-path="url(#clip1)"><rect x="0" y="0" width="1280" height="720" fill="#FFFFFF"/><rect x="0.500053" y="219.5" width="1280" height="257" stroke="#000000" stroke-width="1.33333" stroke-miterlimit="8" fill="#FFFFFF"/><g clip-path="url(#clip2)" filter="url(#fx0)" transform="translate(-5 247)"><g clip-path="url(#clip3)"><path d="M50.313-52.5596 50.313-61.3892 37.2515-61.3892 22.2568-61.1802C21.7692-61.1802 21.5254-61.424 21.5254-61.9116L21.5254-64.9419C21.5254-65.4295 21.7692-65.6733 22.2568-65.6733L37.2515-65.4644 50.313-65.4644 50.313-73.8237 31.1387-73.8237 16.0918-73.6147C15.5693-73.6147 15.3081-73.8586 15.3081-74.3462L15.3081-77.481C15.3081-77.9686 15.5693-78.2124 16.0918-78.2124L31.1387-78.0034 50.313-78.0034C50.313-83.437 50.0692-87.1116 49.5815-89.0273 51.6366-88.9229 53.4826-88.7487 55.1196-88.5049 55.9207-88.3656 56.3213-88.0695 56.3213-87.6167 56.3213-87.3381 56.0949-86.6937 55.6421-85.6836 55.2938-84.8128 55.1196-82.2528 55.1196-78.0034L75.6523-78.0034 90.856-78.2124C91.3436-78.2124 91.5874-77.9686 91.5874-77.481L91.5874-74.3462C91.5874-73.8586 91.3436-73.6147 90.856-73.6147L75.6523-73.8237 55.1196-73.8237 55.1196-65.4644 70.4277-65.4644 85.3179-65.6733C85.8055-65.6733 86.0493-65.4295 86.0493-64.9419L86.0493-61.9116C86.0493-61.424 85.8055-61.1802 85.3179-61.1802L70.4277-61.3892 55.1196-61.3892 55.1196-52.5596 84.2207-52.5596 98.5884-52.7686C99.076-52.7686 99.3198-52.5247 99.3198-52.0371L99.3198-48.9023C99.3198-48.4147 99.076-48.1709 98.5884-48.1709L84.2207-48.3799 23.2495-48.3799 8.88184-48.1709C8.39421-48.1709 8.15039-48.4147 8.15039-48.9023L8.15039-52.0371C8.15039-52.5247 8.39421-52.7686 8.88184-52.7686L23.2495-52.5596ZM76.854-11.1284 30.6162-11.1284 30.6162-5.43359 30.8252 6.53076C30.8252 6.94873 30.5814 7.15771 30.0938 7.15771L26.4365 7.15771C25.9489 7.15771 25.7051 6.94873 25.7051 6.53076L25.9141-5.22461 25.9141-28.2651 25.7051-40.2295C25.7051-40.7171 25.9489-40.9609 26.4365-40.9609L40.9087-40.752 66.5615-40.752 81.0337-40.9609C81.5213-40.9609 81.7651-40.7171 81.7651-40.2295L81.5562-27.7427 81.5562-14.9946 81.7651-2.76904C81.7651 0.644368 81.0163 2.99544 79.5186 4.28418 77.9163 5.57292 74.1546 6.21729 68.2334 6.21729 67.8851 6.21729 67.293 6.21729 66.457 6.21729 65.5166 6.21729 64.9593 6.14762 64.7852 6.0083 64.611 5.86898 64.4194 5.39876 64.2104 4.59766 63.897 3.37858 63.2874 2.15951 62.3818 0.94043 65.5514 1.25391 68.9126 1.41064 72.4653 1.41064 75.3911 1.41064 76.854-0.121908 76.854-3.18701ZM76.854-15.2036 76.854-24.0854 30.6162-24.0854 30.6162-15.2036ZM76.854-28.1606 76.854-36.4678 30.6162-36.4678 30.6162-28.1606ZM139.007-26.959C139.355-5.46842 139.529 5.69482 139.529 6.53076 139.529 7.01839 139.268 7.26221 138.746 7.26221L135.454 7.26221C134.967 7.26221 134.723 7.01839 134.723 6.53076 134.723 6.42627 134.775 2.82129 134.88-4.28418 134.984-11.8076 135.071-19.0872 135.141-26.123 130.195-16.0918 123.699-7.78467 115.653-1.20166 114.991-0.679199 114.573-0.417969 114.399-0.417969 114.19-0.417969 113.824-0.818522 113.302-1.61963 112.71-2.52523 111.961-3.27409 111.055-3.86621 120.076-10.2751 127.495-18.8608 133.312-29.6235L126.781-29.6235 114.504-29.4146C113.981-29.4146 113.72-29.7106 113.72-30.3027L113.72-33.2808C113.72-33.7684 113.981-34.0122 114.504-34.0122L126.781-33.8032 134.932-33.8032 134.932-37.2515C134.932-42.1626 134.705-45.5063 134.253-47.2827 136.412-47.1782 138.101-47.0389 139.32-46.8647 140.017-46.7254 140.365-46.4468 140.365-46.0288 140.365-45.6457 140.226-45.1755 139.947-44.6182 139.529-43.6081 139.32-41.1525 139.32-37.2515L139.32-33.8032 142.821-33.8032 155.151-34.0122C155.569-34.0122 155.778-33.7684 155.778-33.2808L155.778-30.3027C155.778-29.7106 155.569-29.4146 155.151-29.4146L142.821-29.6235 140.679-29.6235C144.859-23.3192 149.961-18.2513 155.987-14.4199 155.151-13.7233 154.472-12.957 153.949-12.1211 153.531-11.3548 153.201-10.9717 152.957-10.9717 152.783-10.9717 152.365-11.2329 151.703-11.7554 146.548-15.9699 142.316-21.0378 139.007-26.959ZM161.264-70.2188C161.299-64.3672 161.438-57.9409 161.682-50.9399 161.891-45.4367 161.995-42.6502 161.995-42.5806 161.995-42.0929 161.751-41.8491 161.264-41.8491L157.293-41.8491C156.771-41.8491 156.509-42.0929 156.509-42.5806L157.189-70.2188C152.243-64.0885 146.025-58.8988 138.537-54.6494 132.999-51.5146 126.294-48.6237 118.422-45.9766 117.83-45.7676 117.429-45.6631 117.22-45.6631 116.802-45.6631 116.35-46.0985 115.862-46.9692 115.165-48.1187 114.347-49.0068 113.406-49.6338 122.95-52.3506 130.804-55.3983 136.969-58.7769 142.96-62.0509 148.342-66.1436 153.113-71.0547L134.932-71.0547 120.042-70.8457C119.554-70.8457 119.31-71.0895 119.31-71.5771L119.31-74.8164C119.31-75.304 119.554-75.5479 120.042-75.5479L134.932-75.3389 156.875-75.3389 156.875-78.0034C156.875-82.4966 156.614-86.0667 156.091-88.7139 158.321-88.6094 160.167-88.4004 161.63-88.0869 162.5-87.9476 162.936-87.6515 162.936-87.1987 162.936-86.9201 162.849-86.5718 162.674-86.1538 162.465-85.6662 162.344-85.3353 162.309-85.1611 161.891-83.7679 161.682-81.4865 161.682-78.3169L161.682-75.3389 185.402-75.3389 200.396-75.5479C200.884-75.5479 201.128-75.304 201.128-74.8164L201.128-71.5771C201.128-71.0895 200.884-70.8457 200.396-70.8457L185.402-71.0547 165.287-71.0547C171.312-65.4818 177.687-61.0408 184.409-57.7319 190.156-54.9106 197.488-52.2461 206.404-49.7383 205.255-48.8675 204.437-47.9097 203.949-46.8647 203.496-45.9591 203.043-45.5063 202.59-45.5063 202.347-45.5063 201.946-45.6108 201.389-45.8198 184.461-51.1838 171.086-59.3167 161.264-70.2188ZM182.424-27.168C182.772-6.2347 182.946 4.96338 182.946 6.42627 182.946 6.9139 182.737 7.15771 182.319 7.15771L178.975 7.15771C178.488 7.15771 178.244 6.9139 178.244 6.42627 178.244 4.61507 178.418-6.54818 178.766-27.0635 173.576-16.3356 165.949-7.55827 155.882-0.731445 155.256-0.313477 154.855-0.104492 154.681-0.104492 154.402-0.104492 154.019-0.48763 153.531-1.25391 152.8-2.29883 151.981-3.03027 151.076-3.44824 162.465-10.3099 170.912-19.035 176.415-29.6235L174.482-29.6235 161.473-29.4146C160.95-29.4146 160.689-29.6932 160.689-30.2505L160.689-33.2808C160.689-33.7684 160.95-34.0122 161.473-34.0122L174.482-33.8032 178.348-33.8032 178.348-37.4604C178.348-41.9884 178.174-45.2277 177.826-47.1782 179.951-47.0737 181.675-46.9344 182.998-46.7603 183.555-46.6558 183.834-46.4119 183.834-46.0288 183.834-45.576 183.695-45.071 183.416-44.5137 183.033-43.6777 182.841-41.3615 182.841-37.5649L182.841-33.8032 192.925-33.8032 205.882-34.0122C206.37-34.0122 206.613-33.7684 206.613-33.2808L206.613-30.2505C206.613-29.6932 206.37-29.4146 205.882-29.4146L192.925-29.6235 184.252-29.6235C191.149-19.1047 199.856-10.9717 210.375-5.22461 209.47-4.45833 208.721-3.57015 208.129-2.56006 207.606-1.72412 207.223-1.30615 206.979-1.30615 206.77-1.30615 206.404-1.48031 205.882-1.82861 195.502-9.00374 187.683-17.4502 182.424-27.168ZM269.446-52.3506C271.57-45.5934 273.956-39.707 276.603-34.6914 282.316-23.9984 289.63-15.1514 298.547-8.15039 302.761-4.8763 307.934-1.88086 314.064 0.835938 312.81 1.63704 311.765 2.7168 310.929 4.0752 310.407 4.94596 310.006 5.38135 309.727 5.38135 309.518 5.38135 309.066 5.18978 308.369 4.80664 302.866 1.74154 298.338-1.28874 294.785-4.28418 289.038-9.16048 284.04-14.6289 279.79-20.6895 273.486-29.5365 268.958-38.993 266.206-49.0591 264.674-40.8042 262.567-33.9425 259.885-28.4741 255.984-20.4631 250.985-13.6536 244.89-8.0459 239.631-3.20443 233.082 1.18424 225.245 5.12012 224.549 5.46842 224.096 5.64258 223.887 5.64258 223.539 5.64258 223.051 5.22461 222.424 4.38867 221.623 3.37858 220.561 2.50781 219.237 1.77637 236.478-5.53809 248.495-16.3356 255.287-30.6162 258.282-36.9206 260.355-44.1654 261.504-52.3506L236.687-52.3506 222.215-52.1416C221.728-52.1416 221.484-52.3854 221.484-52.873L221.484-56.6348C221.484-57.1224 221.728-57.3662 222.215-57.3662L236.687-57.1572 262.131-57.1572C262.654-61.7897 262.967-67.7806 263.072-75.1299 263.106-76.6973 263.124-77.9338 263.124-78.8394 263.124-82.0786 262.932-84.8302 262.549-87.0942 265.057-86.9897 267.095-86.7808 268.662-86.4673 269.533-86.3628 269.968-86.0145 269.968-85.4224 269.968-85.1089 269.759-84.4645 269.341-83.4893 268.854-82.5488 268.557-79.7972 268.453-75.2344 268.348-68.7559 268-62.7301 267.408-57.1572L296.509-57.1572 310.929-57.3662C311.417-57.3662 311.66-57.1224 311.66-56.6348L311.66-52.873C311.66-52.3854 311.417-52.1416 310.929-52.1416L296.509-52.3506ZM371.253-23.6675 341.734-23.6675 327.576-23.4585C327.088-23.4585 326.844-23.7023 326.844-24.1899L326.844-27.7427C326.844-28.2303 327.088-28.4741 327.576-28.4741L341.734-28.2651 371.253-28.2651C371.253-33.6987 371.01-37.4082 370.522-39.3936 372.333-39.0104 374.005-38.575 375.538-38.0874 381.319-41.3267 386.492-44.862 391.055-48.6934L360.334-48.6934 346.437-48.4844C345.914-48.4844 345.653-48.7282 345.653-49.2158L345.653-52.5596C345.653-53.0472 345.914-53.291 346.437-53.291L360.334-53.082 390.584-53.082C392.013-53.082 392.953-53.1517 393.406-53.291 393.824-53.4303 394.172-53.5 394.451-53.5 394.973-53.5 395.826-52.8556 397.011-51.5669 398.16-50.3478 398.735-49.39 398.735-48.6934 398.735-48.0664 398.421-47.6659 397.794-47.4917 396.575-47.1434 395.112-46.29 393.406-44.9316 389.087-41.6227 383.444-38.1048 376.478-34.3779 376.339-33.7858 376.269-32.3926 376.269-30.1982L376.269-28.2651 405.37-28.2651 419.477-28.4741C419.999-28.4741 420.26-28.2303 420.26-27.7427L420.26-24.1899C420.26-23.7023 419.999-23.4585 419.477-23.4585L405.37-23.6675 376.269-23.6675 376.269-11.1284 376.374-1.93311C376.374 1.06234 375.485 3.1696 373.709 4.38867 372.072 5.39876 369.111 5.93864 364.827 6.0083 362.633 6.0083 360.822 5.97347 359.394 5.90381 358.418 5.83415 357.878 5.74707 357.774 5.64258 357.6 5.53809 357.426 5.08529 357.251 4.28418 356.694 2.68197 356.085 1.39323 355.423 0.417969 358.941 0.870768 362.581 1.09717 366.342 1.09717 368.153 1.09717 369.425 0.783691 370.156 0.156738 370.888-0.505046 371.253-1.61963 371.253-3.18701ZM390.637-68.4946C393.667-73.0226 396.227-77.6551 398.317-82.3921 398.909-83.9246 399.31-85.492 399.519-87.0942 401.086-86.6763 402.723-86.0319 404.43-85.1611 405.126-84.778 405.475-84.36 405.475-83.9072 405.475-83.5241 405.266-83.1584 404.848-82.8101 404.116-82.3573 403.437-81.5387 402.81-80.3545 400.999-76.8714 398.648-72.9181 395.757-68.4946L400.772-68.4946 415.767-68.7036C416.324-68.7036 416.603-68.4946 416.603-68.0767L416.394-63.0088 416.394-58.7246 416.603-47.4917C416.603-47.0041 416.324-46.7603 415.767-46.7603L412.214-46.7603C411.727-46.7603 411.483-47.0041 411.483-47.4917L411.483-64.2104 335.831-64.2104 335.831-47.4917C335.831-47.0041 335.587-46.7603 335.099-46.7603L331.442-46.7603C330.954-46.7603 330.71-47.0041 330.71-47.4917L330.919-58.7246 330.919-62.3818 330.71-68.0767C330.71-68.4946 330.954-68.7036 331.442-68.7036L346.437-68.4946ZM345.862-85.9448C348.857-82.3573 351.644-78.3169 354.221-73.8237 354.395-73.5799 354.482-73.3883 354.482-73.249 354.482-73.0052 354.117-72.6569 353.385-72.2041L351.87-71.4727C351.139-71.0895 350.651-70.8979 350.407-70.8979 350.198-70.8979 350.007-71.0895 349.833-71.4727 347.917-75.3737 345.165-79.5186 341.578-83.9072 341.438-84.0814 341.369-84.2207 341.369-84.3252 341.369-84.4993 341.769-84.778 342.57-85.1611L344.085-85.9448C344.608-86.1886 344.991-86.3105 345.235-86.3105 345.444-86.3105 345.653-86.1886 345.862-85.9448ZM366.76-85.9448C366.621-86.1886 366.551-86.3628 366.551-86.4673 366.551-86.7111 366.9-86.9897 367.596-87.3032L369.216-87.9302C369.669-88.1392 369.982-88.2437 370.156-88.2437 370.365-88.2437 370.592-88.0695 370.835-87.7212 373.622-83.7157 375.938-79.5186 377.784-75.1299 377.889-74.9209 377.941-74.7642 377.941-74.6597 377.941-74.4507 377.488-74.1372 376.583-73.7192L375.12-73.0923C374.388-72.7788 373.918-72.6221 373.709-72.6221 373.43-72.6221 373.221-72.8485 373.082-73.3013 371.689-77.3416 369.582-81.5562 366.76-85.9448ZM440.878-74.9731C447.6-74.4158 453.991-74.1372 460.052-74.1372L507.021-74.1372C511.549-74.1372 514.283-74.3462 515.224-74.7642 515.677-74.9731 516.182-75.0776 516.739-75.0776 517.122-75.0776 517.557-74.9035 518.045-74.5552 519.299-73.5103 520.361-72.3957 521.232-71.2114 521.511-70.8979 521.65-70.5148 521.65-70.062 521.65-69.3654 521.337-68.8604 520.71-68.5469 519.943-68.0592 519.195-67.2407 518.463-66.0913 512.786-57.5578 505.941-50.4349 497.93-44.7227 497.617-44.5137 497.269-44.4092 496.885-44.4092 496.467-44.4092 496.102-44.5485 495.788-44.8271 494.5-45.9069 493.002-46.6558 491.295-47.0737 500.734-52.9949 508.118-60.3094 513.447-69.0171L460.574-69.0171C455.454-69.0171 449.777-68.721 443.542-68.1289 443.403-68.1289 443.264-68.1289 443.124-68.1289 442.288-68.1289 441.818-68.4946 441.714-69.2261 441.296-71.8035 441.017-73.7192 440.878-74.9731ZM449.237-2.76904C459.686-8.16781 466.931-15.1688 470.971-23.772 474.454-30.8426 476.196-39.7244 476.196-50.4175 476.196-53.3433 475.83-56.0775 475.099-58.6201 478.234-58.3415 480.654-57.8887 482.361-57.2617 483.197-56.9482 483.615-56.4432 483.615-55.7466 483.615-55.3983 483.493-54.9977 483.249-54.5449 482.587-53.4303 482.257-52.0894 482.257-50.522 482.257-39.2368 480.271-29.4842 476.3-21.2642 472.225-12.9396 465.52-5.83415 456.186 0.0522461 455.768 0.296061 455.367 0.417969 454.984 0.417969 454.531 0.417969 454.113 0.243815 453.73-0.104492 452.476-1.32357 450.979-2.21175 449.237-2.76904ZM546.604-43.73C551.411-43.103 558.76-42.7896 568.652-42.7896L602.664-42.7896C612.591-42.7896 620.253-42.894 625.652-43.103 626.662-43.103 627.167-42.7025 627.167-41.9014L627.167-37.8784C627.167-37.0076 626.662-36.5723 625.652-36.5723 621.925-36.7116 617.223-36.7812 611.546-36.7812L602.873-36.7812 561.181-36.7812 548.955-35.8408C548.154-35.8408 547.649-36.2762 547.44-37.147 546.883-39.2716 546.604-41.466 546.604-43.73ZM691.515-65.5688C694.336-65.325 696.826-64.9419 698.986-64.4194 699.682-64.2104 700.031-63.7751 700.031-63.1133 700.031-62.7998 699.944-62.4863 699.77-62.1729 699.177-61.2673 698.847-59.6476 698.777-57.314L698.672-53.918C698.672-51.0618 698.638-48.9198 698.568-47.4917L713.092-47.4917C721.208-47.4917 727.913-47.6833 733.207-48.0664 733.346-48.0664 733.468-48.0664 733.573-48.0664 734.13-48.0664 734.409-47.6659 734.409-46.8647 734.444-46.3075 734.461-45.6979 734.461-45.0361 734.461-44.3395 734.444-43.7822 734.409-43.3643 734.409-42.7373 734.322-42.3542 734.148-42.2148 734.008-42.1104 733.66-42.0581 733.103-42.0581 728.609-42.1974 721.905-42.2671 712.988-42.2671L698.463-42.2671C698.011-33.2459 696.478-25.6877 693.866-19.5923 689.965-10.5363 684.148-3.50049 676.416 1.51514 676.067 1.72412 675.771 1.82861 675.527 1.82861 675.214 1.82861 674.866 1.68929 674.482 1.41064 673.229 0.400553 671.557-0.417969 669.467-1.04492 678.279-6.09538 684.549-12.8874 688.275-21.4209 690.818-27.1331 692.246-34.0819 692.56-42.2671L672.654-42.2671C665.827-42.2671 659.732-42.1278 654.368-41.8491 653.462-41.8491 652.922-42.3542 652.748-43.3643 652.748-43.6081 652.678-44.4092 652.539-45.7676 652.435-46.7428 652.365-47.4917 652.33-48.0142 658.565-47.6659 665.409-47.4917 672.863-47.4917L692.664-47.4917C692.699-48.3276 692.716-49.3203 692.716-50.4697L692.664-56.5825C692.56-59.9263 692.177-62.9217 691.515-65.5688ZM715.234-81.5562C717.429-80.1978 718.996-79.0483 719.937-78.1079 720.738-77.3068 721.138-76.6624 721.138-76.1748 721.138-75.5479 720.424-75.0776 718.996-74.7642 716.349-74.2417 714.381-73.7889 713.092-73.4058 704.768-70.7935 697.384-68.8952 690.94-67.7109 682.859-66.1087 673.664-64.7852 663.354-63.7402 663.25-63.7402 663.145-63.7402 663.041-63.7402 662.309-63.7402 661.804-64.0711 661.525-64.7329 660.968-66.0913 659.975-67.3452 658.547-68.4946 668.892-69.1912 679.167-70.5496 689.373-72.5698 696.652-73.9979 703.2-75.7742 709.017-77.8989 711.734-78.9787 713.806-80.1978 715.234-81.5562ZM802.257-42.2671 802.257-10.606 816.938-10.606C820.038-10.606 825.018-10.6756 831.88-10.8149 832.437-10.8149 832.768-10.4666 832.873-9.77002L832.873-7.00098C832.803-6.13021 832.472-5.69482 831.88-5.69482 824.914-5.83415 819.968-5.90381 817.042-5.90381L781.828-5.90381C779.077-5.90381 774.723-5.76449 768.767-5.48584 768.175-5.48584 767.826-5.83415 767.722-6.53076 767.583-8.06331 767.513-9.5262 767.513-10.9194 770.926-10.7104 775.698-10.606 781.828-10.606L796.823-10.606 796.823-42.1626 788.777-42.1626C783.448-42.1626 779.355-42.1278 776.499-42.0581 775.663-42.0581 775.193-42.4064 775.089-43.103 774.949-44.6704 774.88-46.0985 774.88-47.3872 779.268-47.1086 783.866-46.9692 788.673-46.9692L809.414-46.9692C811.469-46.9692 814.012-47.0041 817.042-47.0737 820.456-47.1782 822.72-47.2479 823.834-47.2827 824.566-47.2827 824.931-46.9344 824.931-46.2378L824.931-43.103C824.931-42.4064 824.531-42.0581 823.73-42.0581 816.798-42.1974 812.027-42.2671 809.414-42.2671ZM883.741-79.623C886.806-79.3096 889.348-78.8045 891.369-78.1079 892.065-77.8989 892.414-77.481 892.414-76.854 892.414-76.5405 892.309-76.2096 892.1-75.8613 891.334-74.6423 890.951-71.0721 890.951-65.1509L890.951-47.4917C890.951-42.7896 891.055-37.9829 891.264-33.0718 891.264-32.0617 890.829-31.5566 889.958-31.5566L885.987-31.5566C885.186-31.5566 884.786-31.9398 884.786-32.7061 884.786-32.8105 884.786-32.9325 884.786-33.0718 884.96-39.8289 885.047-44.7401 885.047-47.8052L885.047-65.1509C885.047-71.6642 884.611-76.4883 883.741-79.623ZM889.174-0.94043C900.007-4.11003 908.052-8.79476 913.312-14.9946 919.338-22.1349 922.351-31.9398 922.351-44.4092L922.351-64.6284C922.351-72.2912 921.915-77.8989 921.044-81.4517 924.214-81.173 926.826-80.668 928.881-79.9365 929.508-79.6927 929.822-79.2399 929.822-78.5781 929.822-78.2298 929.717-77.8641 929.508-77.481 928.742-76.0181 928.359-71.7687 928.359-64.7329L928.359-45.2451C928.359-30.9993 925.137-20.0799 918.693-12.4868 913.19-6.0083 905.527-0.905599 895.705 2.82129 895.287 2.96061 894.939 3.03027 894.66 3.03027 894.172 3.03027 893.737 2.76904 893.354 2.24658 892.309 0.992676 890.916-0.0696615 889.174-0.94043ZM973.271-43.73C978.077-43.103 985.427-42.7896 995.318-42.7896L1029.33-42.7896C1039.26-42.7896 1046.92-42.894 1052.32-43.103 1053.33-43.103 1053.83-42.7025 1053.83-41.9014L1053.83-37.8784C1053.83-37.0076 1053.33-36.5723 1052.32-36.5723 1048.59-36.7116 1043.89-36.7812 1038.21-36.7812L1029.54-36.7812 987.847-36.7812 975.622-35.8408C974.821-35.8408 974.316-36.2762 974.107-37.147 973.549-39.2716 973.271-41.466 973.271-43.73ZM1159.09-82.2876C1160.31-82.2876 1161.13-82.3921 1161.55-82.6011 1161.82-82.7404 1162.17-82.8101 1162.59-82.8101 1163.18-82.8101 1163.97-82.305 1164.94-81.2949 1166.02-80.25 1166.56-79.4315 1166.56-78.8394 1166.56-78.3866 1166.35-78.0034 1165.93-77.6899 1165.2-77.2023 1164.45-76.1226 1163.69-74.4507 1158.78-64.4194 1153.85-55.5898 1148.9-47.9619 1156.11-42.389 1161.04-37.4953 1163.69-33.2808 1165.81-29.9718 1166.87-26.4714 1166.87-22.7793 1166.87-12.9919 1160.07-7.83691 1146.45-7.31445 1146.06-7.27962 1145.78-7.26221 1145.61-7.26221 1145.02-7.26221 1144.55-7.83691 1144.2-8.98633 1143.85-10.3796 1143.31-11.3722 1142.58-11.9644 1155.5-11.7554 1161.96-15.4997 1161.96-23.1973 1161.96-26.75 1160.61-30.2331 1157.89-33.6465 1155.24-36.9902 1150.4-41.5705 1143.36-47.3872 1149.84-56.9657 1155.29-67.1362 1159.72-77.8989L1137.36-77.8989 1137.36-14.7856 1137.56 6.53076C1137.56 7.01839 1137.32 7.26221 1136.83 7.26221L1133.18 7.26221C1132.69 7.26221 1132.44 7.01839 1132.44 6.53076L1132.65-14.6812 1132.65-60.4487 1132.44-81.7651C1132.44-82.2528 1132.69-82.4966 1133.18-82.4966L1142.58-82.2876ZM1087.2-0.835938 1087.2 5.90381C1087.2 6.39144 1086.96 6.63525 1086.47 6.63525L1082.92 6.63525C1082.5 6.63525 1082.29 6.39144 1082.29 5.90381L1082.5-12.0688 1082.5-20.1147 1082.29-31.3477C1082.29-31.8353 1082.5-32.0791 1082.92-32.0791L1094.46-31.8701 1107.78-31.8701 1119.44-32.0791C1119.92-32.0791 1120.17-31.8353 1120.17-31.3477L1119.96-21.2642 1119.96-12.2778 1120.17 5.59033C1120.17 6.07796 1119.92 6.32178 1119.44 6.32178L1115.99 6.32178C1115.5 6.32178 1115.26 6.07796 1115.26 5.59033L1115.26-0.835938ZM1087.2-5.12012 1115.26-5.12012 1115.26-27.5859 1087.2-27.5859ZM1106.11-48.4844C1108.62-53.8483 1110.41-58.3415 1111.49-61.9639 1112.12-64.3672 1112.47-66.1958 1112.54-67.4497 1114.32-67.0666 1115.88-66.5964 1117.24-66.0391 1118.04-65.6908 1118.44-65.325 1118.44-64.9419 1118.44-64.5936 1118.16-64.0711 1117.61-63.3745 1116.84-62.4341 1116.3-61.5285 1115.99-60.6577 1114.87-57.6274 1113.04-53.5697 1110.5-48.4844L1112.75-48.4844 1126.8-48.6934C1127.29-48.6934 1127.53-48.4495 1127.53-47.9619L1127.53-44.6182C1127.53-44.1305 1127.29-43.8867 1126.8-43.8867L1112.75-44.0957 1089.03-44.0957 1074.97-43.8867C1074.49-43.8867 1074.24-44.1305 1074.24-44.6182L1074.24-47.9619C1074.24-48.4495 1074.49-48.6934 1074.97-48.6934L1089.03-48.4844ZM1098.95-75.8613 1098.95-79.4141C1098.95-83.7679 1098.71-86.8678 1098.22-88.7139 1100.21-88.6094 1102.02-88.4004 1103.66-88.0869 1104.46-87.9476 1104.86-87.6864 1104.86-87.3032 1104.86-86.9549 1104.65-86.3454 1104.23-85.4746 1103.85-84.778 1103.66-82.7578 1103.66-79.4141L1103.66-75.8613 1111.7-75.8613 1125.08-76.0703C1125.5-76.0703 1125.7-75.8265 1125.7-75.3389L1125.7-71.9951C1125.7-71.5075 1125.5-71.2637 1125.08-71.2637L1111.7-71.4727 1091.48-71.4727 1078.11-71.2637C1077.59-71.2637 1077.32-71.5075 1077.32-71.9951L1077.32-75.3389C1077.32-75.8265 1077.59-76.0703 1078.11-76.0703L1091.48-75.8613ZM1085.06-65.8301C1084.92-66.0391 1084.85-66.1958 1084.85-66.3003 1084.85-66.4744 1085.27-66.7008 1086.1-66.9795L1087.62-67.3975C1088.07-67.5368 1088.38-67.6064 1088.56-67.6064 1088.84-67.6064 1089.1-67.3975 1089.34-66.9795 1091.43-62.9391 1093.03-58.4808 1094.15-53.6045 1094.22-53.3955 1094.25-53.2388 1094.25-53.1343 1094.25-52.9601 1093.85-52.7337 1093.05-52.4551L1091.38-51.8804C1090.79-51.741 1090.39-51.6714 1090.18-51.6714 1089.97-51.6714 1089.79-51.8804 1089.66-52.2983 1088.3-57.8713 1086.76-62.3818 1085.06-65.8301Z" transform="translate(59.764 136)"/></g></g><text font-family="Yu Gothic,Yu Gothic_MSFontService,sans-serif" font-weight="400" font-size="107" transform="translate(53.3333 381)">青森大学アーチェリー部</text></g></svg>